<svg width="53" height="46" viewBox="0 0 53 46" fill="none" xmlns="http://www.w3.org/2000/svg">
<path d="M6.50003 12C-0.299969 22.8 1.33336 33.8333 3.00003 38C3.60003 39.5 8.5 43.5 10.5 44C12.9734 44.6183 30.5 43.5 34 44.5C37.5 45.5 48 44 50 36.5C52 29 51.5 23.5 46 13C41.6 4.6 32.8333 1.83333 29 1.5C24.3333 0.5 13.3 1.2 6.50003 12Z" fill="white"/>
<path d="M52.14 31.79C52.14 35.58 50.59 39.03 48.09 41.52C45.59 44.02 42.15 45.57 38.36 45.57H13.78C9.99 45.57 6.55 44.02 4.05 41.52C1.55 39.02 0 35.58 0 31.79C0 16.59 6.74 6.81997 15.36 2.51997C18.73 0.839965 22.4 -3.48551e-05 26.07 -3.48551e-05C29.73 -0.0100349 33.4 0.839965 36.78 2.51997C45.4 6.81997 52.14 16.59 52.14 31.79ZM46.28 39.7C48.31 37.67 49.57 34.87 49.57 31.79C49.57 17.71 43.46 8.71997 35.64 4.81997C32.62 3.31997 29.35 2.55997 26.07 2.55997C22.8 2.55997 19.53 3.30997 16.5 4.81997C8.68 8.71997 2.57 17.7 2.57 31.79C2.57 34.87 3.83 37.67 5.86 39.7C7.89 41.73 10.69 42.99 13.77 42.99H38.35C41.43 42.99 44.23 41.73 46.26 39.7H46.28Z" fill="#40437D"/>
<path d="M20.6299 30.32C20.1299 29.82 20.1299 29 20.6299 28.5C21.1299 28 21.9499 28 22.4499 28.5L22.5099 28.56C23.4999 29.52 24.7799 30 26.0699 30C27.3799 30 28.6899 29.5 29.6799 28.51C30.1799 28.01 30.9899 28.01 31.4999 28.51C31.9999 29.01 31.9999 29.83 31.4999 30.33C29.9899 31.83 28.0299 32.58 26.0699 32.58C24.1399 32.58 22.2099 31.85 20.7199 30.4L20.6399 30.33L20.6299 30.32Z" fill="#40437D"/>
<path d="M15.5099 22.51C15.0099 23.01 14.1899 23.01 13.6899 22.51C13.1899 22.01 13.1899 21.19 13.6899 20.69C14.8099 19.57 16.2699 19.01 17.7399 19.01C19.1999 19.01 20.6699 19.57 21.7899 20.69C22.2899 21.19 22.2899 22 21.7899 22.5C21.2899 23 20.4799 23 19.9799 22.49C19.3699 21.88 18.5599 21.57 17.7499 21.57C16.9399 21.57 16.1399 21.88 15.5199 22.49L15.5099 22.51Z" fill="#40437D"/>
<path d="M32.1601 22.51C31.6601 23.01 30.8401 23.01 30.3401 22.51C29.8401 22.01 29.8401 21.19 30.3401 20.69C31.4601 19.57 32.9201 19.01 34.3901 19.01C35.8501 19.01 37.3201 19.57 38.4401 20.69C38.9401 21.19 38.9401 22 38.4401 22.5C37.9401 23 37.1301 23 36.6301 22.49C36.0201 21.88 35.2101 21.57 34.4001 21.57C33.5901 21.57 32.7901 21.88 32.1701 22.49L32.1601 22.51Z" fill="#40437D"/>
</svg>
