<svg width="29" height="30" viewBox="0 0 29 30" fill="none" xmlns="http://www.w3.org/2000/svg">
<path d="M14.4796 15.938L25.9131 4.1103C26.037 3.97917 26.1857 3.87592 26.3499 3.80702C26.509 3.7394 26.6793 3.70438 26.8512 3.70391C27.205 3.71165 27.5422 3.86048 27.7924 4.1193C28.0426 4.37813 28.1865 4.72695 28.1939 5.09291C28.1933 5.28261 28.1595 5.47063 28.0943 5.6479C28.0358 5.8119 27.9343 5.95578 27.8011 6.06339L15.4207 18.8889C15.3147 19.0258 15.1749 19.1306 15.0161 19.1922C14.8453 19.2617 14.6632 19.2967 14.4796 19.2953C14.3075 19.2968 14.1368 19.2617 13.9783 19.1922C13.8142 19.1229 13.6656 19.0197 13.5415 18.8889L8.20881 13.2995C8.07449 13.1931 7.9727 13.0488 7.91565 12.884C7.84598 12.708 7.8111 12.5193 7.81304 12.329C7.8247 11.9666 7.96889 11.6223 8.21649 11.3656C8.46408 11.1089 8.79663 10.959 9.14694 10.9461C9.3248 10.9388 9.50063 10.9874 9.65119 11.0856C9.78311 11.1887 9.94436 11.2585 10.0851 11.3646L14.4796 15.938ZM25.4968 11.2918C26.3536 13.9964 26.253 16.9281 25.213 19.563C24.1731 22.198 22.2615 24.3647 19.8197 25.6761C17.3779 26.9875 14.5649 27.3582 11.8833 26.722C9.20166 26.0857 6.82599 24.484 5.18066 22.2029C3.53532 19.9218 2.72747 17.1099 2.90141 14.2695C3.07535 11.4291 4.21975 8.74511 6.1302 6.69704C8.04064 4.64897 10.5927 3.37019 13.3305 3.08911C16.0683 2.80804 18.8136 3.54298 21.0759 5.16266L23.1808 2.98515C20.358 0.802551 16.8633 -0.241827 13.3502 0.0472543C9.83715 0.336336 6.54608 1.93909 4.09227 4.55589C1.63847 7.17268 0.189908 10.6244 0.0173948 14.2657C-0.155118 17.9071 0.960224 21.4888 3.15492 24.3412C5.34961 27.1937 8.47341 29.1217 11.9423 29.7648C15.4113 30.4078 18.9879 29.722 22.0035 27.8354C25.0191 25.9488 27.2673 22.9906 28.3279 19.5139C29.3884 16.0372 29.1886 12.2799 27.7659 8.9445L25.4968 11.2918Z" fill="#71D2A6"/>
</svg>
