<svg width="31" height="31" viewBox="0 0 31 31" fill="none" xmlns="http://www.w3.org/2000/svg">
<path d="M26.9226 11.0271L27.1594 10.9469L26.9226 11.0271C28.867 16.7677 26.7134 23.092 21.3401 26.0602C16.3879 28.7958 10.0308 27.6571 6.28158 23.4419L6.09478 23.608L6.28158 23.4419C2.5267 19.2203 2.21139 12.7554 5.50581 8.17039C9.21604 3.00675 16.2139 1.71091 21.698 4.79132C22.0344 4.98031 22.3771 4.998 22.6761 4.89239C22.969 4.78895 23.205 4.5731 23.3542 4.31786C23.5033 4.06274 23.5751 3.75209 23.5173 3.44853C23.4582 3.13785 23.2669 2.85517 22.9303 2.66609C12.6257 -3.12206 -0.501025 4.94787 0.845569 16.96C2.0888 28.0501 15.3682 33.8119 24.2931 27.0581C29.4469 23.1581 31.3373 16.4126 29.2827 10.3466C29.0291 9.59783 28.3002 9.39774 27.7342 9.55195C27.4495 9.62952 27.1817 9.8003 27.016 10.059C26.846 10.3247 26.7985 10.6607 26.9226 11.0271Z" fill="#C20000" stroke="#C20000" stroke-width="0.5"/>
<path d="M7.98353 21.0525L8.15247 21.2368L7.98353 21.0525C7.69869 21.3136 7.57803 21.6315 7.59627 21.9466C7.61405 22.2539 7.76212 22.5353 7.97111 22.7439C8.38725 23.1591 9.11876 23.3416 9.70478 22.8044L15.6988 17.3097L21.186 22.7969C21.4589 23.0699 21.7834 23.1786 22.0992 23.1548C22.4082 23.1314 22.6909 22.9829 22.8999 22.774C23.1089 22.565 23.2575 22.2823 23.2808 21.9734C23.3047 21.6575 23.1959 21.333 22.9229 21.06L17.5112 15.6483L28.9571 5.15575C29.242 4.89464 29.3627 4.57675 29.3444 4.26164C29.3266 3.95436 29.1786 3.67291 28.9696 3.46436C28.5534 3.04909 27.8219 2.86659 27.2359 3.40379L15.7739 13.911L9.71263 7.84968C9.43966 7.57671 9.11515 7.46796 8.79936 7.49185C8.49043 7.51521 8.20773 7.66367 7.99869 7.87265C7.78965 8.08164 7.64112 8.3643 7.61774 8.67327C7.59384 8.98908 7.70265 9.31362 7.97569 9.58666L13.9615 15.5725L7.98353 21.0525Z" fill="#C20000" stroke="#C20000" stroke-width="0.5"/>
</svg>
