<svg width="17" height="30" viewBox="0 0 17 30" fill="none" xmlns="http://www.w3.org/2000/svg">
<path d="M15.7148 26.7873C15.8685 26.919 15.9934 27.081 16.0816 27.2632C16.1697 27.4454 16.2192 27.6438 16.227 27.8461C16.2349 28.0483 16.2008 28.25 16.1269 28.4384C16.0531 28.6269 15.9411 28.7981 15.798 28.9412C15.6549 29.0843 15.4837 29.1963 15.2953 29.2701C15.1068 29.3439 14.9051 29.378 14.7029 29.3702C14.5006 29.3624 14.3022 29.3129 14.12 29.2247C13.9378 29.1366 13.7758 29.0117 13.6441 28.858L0.427048 15.6409C0.153527 15.3657 0 14.9935 0 14.6056C0 14.2176 0.153527 13.8454 0.427048 13.5702L13.6441 0.353127C13.9251 0.112537 14.2865 -0.0131809 14.6561 0.00109523C15.0257 0.0153714 15.3763 0.16859 15.6378 0.430134C15.8993 0.691677 16.0526 1.04228 16.0668 1.41188C16.0811 1.78149 15.9554 2.14287 15.7148 2.4238L3.52572 14.6129L15.7148 26.7873Z" fill="#40437D"/>
</svg>
