<svg width="411" height="133" viewBox="0 0 411 133" fill="none" xmlns="http://www.w3.org/2000/svg">
<path d="M96 49L54 52.2467V121L96 107.345V49Z" fill="#F1A16A"/>
<path d="M10 49L52 52.2467V121L10 107.345V49Z" fill="#71D2A6"/>
<path d="M152.675 52C150.538 52 148.499 51.6591 146.558 50.9774C144.617 50.2762 142.96 49.1855 141.588 47.7052C140.216 46.2249 139.353 44.2869 139 41.8911H146.44C146.813 43.5077 147.636 44.6277 148.911 45.251C150.205 45.8548 151.44 46.1567 152.616 46.1567C154.263 46.1567 155.587 45.9035 156.587 45.3971C157.606 44.8712 158.116 44.0726 158.116 43.0013C158.116 42.1833 157.812 41.5308 157.204 41.0438C156.616 40.5569 155.636 40.1868 154.263 39.9336L148.911 38.8234C146.225 38.2585 144.058 37.3041 142.411 35.9602C140.784 34.5967 139.961 32.6684 139.941 30.1753C139.921 27.4484 141 25.1793 143.176 23.3679C145.372 21.537 148.548 20.6215 152.705 20.6215C156.449 20.6215 159.439 21.4493 161.674 23.1049C163.929 24.741 165.076 27.0394 165.115 30H157.939C157.724 28.8313 157.136 27.9354 156.175 27.3121C155.234 26.6693 154.048 26.3479 152.616 26.3479C151.126 26.3479 149.901 26.6109 148.94 27.1368C147.98 27.6627 147.499 28.4613 147.499 29.5325C147.499 30.3311 147.891 30.9641 148.676 31.4316C149.46 31.8796 150.675 32.2691 152.322 32.6003L157.263 33.7105C159.518 34.2559 161.233 35.0544 162.41 36.1062C163.606 37.158 164.409 38.2683 164.821 39.4369C165.252 40.5861 165.468 41.6184 165.468 42.5339C165.468 45.5529 164.282 47.8902 161.91 49.5458C159.537 51.1819 156.459 52 152.675 52Z" fill="#F1A16A"/>
<path d="M180.226 9.19788V16.8818H171.874V9.19788H180.226ZM180.138 21.2058V51.4157H171.933V21.2058H180.138Z" fill="#F1A16A"/>
<path d="M199.213 52C195.135 52 191.958 50.6073 189.684 47.822C187.41 45.0173 186.273 41.1217 186.273 36.1355C186.273 31.4024 187.312 27.6335 189.39 24.8287C191.468 22.0239 194.458 20.6215 198.36 20.6215C200.536 20.6215 202.428 21.0792 204.036 21.9947C205.643 22.9101 206.81 24.0106 207.535 25.2961V8H216.152V51.4157H209.917L208.947 45.2218C208.574 46.332 208.006 47.4033 207.241 48.4356C206.496 49.4679 205.467 50.3249 204.153 51.0066C202.859 51.6689 201.212 52 199.213 52ZM201.095 45.8645C203.271 45.8645 204.889 45.1147 205.947 43.6149C207.006 42.1151 207.535 39.583 207.535 36.0186C207.496 29.8831 205.369 26.8154 201.154 26.8154C199.291 26.8154 197.742 27.5263 196.507 28.9482C195.272 30.3506 194.654 32.7074 194.654 36.0186C194.654 39.3882 195.233 41.8716 196.389 43.4688C197.546 45.066 199.115 45.8645 201.095 45.8645Z" fill="#F1A16A"/>
<path d="M230.59 38.2683C230.571 40.5861 231.129 42.4267 232.266 43.7902C233.404 45.1536 235.002 45.8353 237.06 45.8353C238.531 45.8353 239.815 45.5237 240.913 44.9004C242.03 44.2771 242.805 43.2545 243.236 41.8327H250.971C250.637 43.9752 249.775 45.8061 248.383 47.3254C247.01 48.8446 245.344 50.0035 243.383 50.8021C241.422 51.6007 239.383 52 237.266 52C234.247 52 231.6 51.3767 229.326 50.1301C227.051 48.8641 225.277 47.0819 224.003 44.7835C222.728 42.4852 222.091 39.7778 222.091 36.6614C222.091 33.6423 222.669 30.9252 223.826 28.51C224.983 26.0753 226.659 24.1567 228.855 22.7543C231.071 21.3324 233.727 20.6215 236.825 20.6215C239.923 20.6215 242.52 21.274 244.618 22.579C246.736 23.8645 248.324 25.6662 249.383 27.9841C250.461 30.2824 251 32.9411 251 35.9602V38.2683H230.59ZM230.561 33.1846H242.971C242.971 31.3537 242.462 29.7955 241.442 28.51C240.423 27.2244 238.884 26.5817 236.825 26.5817C235.492 26.5817 234.355 26.9031 233.413 27.5458C232.492 28.1886 231.786 29.0164 231.296 30.0292C230.806 31.0226 230.561 32.0744 230.561 33.1846Z" fill="#F1A16A"/>
<path d="M147.507 104.956C147.488 107.327 148.047 109.209 149.185 110.604C150.323 111.998 151.923 112.695 153.983 112.695C155.455 112.695 156.74 112.376 157.839 111.739C158.958 111.102 159.733 110.056 160.165 108.602H167.907C167.573 110.793 166.71 112.665 165.316 114.219C163.943 115.773 162.275 116.958 160.312 117.775C158.35 118.592 156.309 119 154.189 119C151.167 119 148.518 118.363 146.241 117.088C143.965 115.793 142.189 113.97 140.913 111.62C139.638 109.269 139 106.5 139 103.313C139 100.225 139.579 97.4462 140.737 94.9761C141.895 92.4861 143.572 90.5239 145.77 89.0896C147.988 87.6355 150.647 86.9084 153.748 86.9084C156.848 86.9084 159.449 87.5757 161.548 88.9104C163.668 90.2251 165.257 92.0677 166.317 94.4382C167.397 96.7888 167.936 99.508 167.936 102.596V104.956H147.507ZM147.478 99.757H159.9C159.9 97.8845 159.39 96.2908 158.369 94.9761C157.349 93.6614 155.808 93.004 153.748 93.004C152.413 93.004 151.275 93.3327 150.333 93.99C149.411 94.6474 148.704 95.494 148.214 96.5299C147.723 97.5458 147.478 98.6215 147.478 99.757Z" fill="#383D9C"/>
<path d="M185.207 119C181.125 119 177.946 117.576 175.67 114.727C173.393 111.859 172.255 107.875 172.255 102.775C172.255 97.9343 173.295 94.0797 175.375 91.2112C177.456 88.3426 180.448 86.9084 184.354 86.9084C186.532 86.9084 188.426 87.3765 190.035 88.3127C191.644 89.249 192.812 90.3745 193.538 91.6892V74H202.163V118.402H195.922L194.951 112.068C194.578 113.203 194.009 114.299 193.243 115.355C192.498 116.41 191.467 117.287 190.153 117.984C188.857 118.661 187.209 119 185.207 119ZM187.091 112.725C189.269 112.725 190.889 111.958 191.948 110.424C193.008 108.89 193.538 106.301 193.538 102.655C193.499 96.3805 191.369 93.243 187.15 93.243C185.286 93.243 183.735 93.9701 182.499 95.4243C181.263 96.8586 180.645 99.2689 180.645 102.655C180.645 106.102 181.223 108.641 182.381 110.275C183.539 111.908 185.109 112.725 187.091 112.725Z" fill="#383D9C"/>
<path d="M220.765 119C218.901 119 217.075 118.612 215.29 117.835C213.523 117.058 212.061 115.922 210.904 114.428C209.746 112.914 209.167 111.062 209.167 108.871V87.506H217.762V107.765C217.762 109.199 218.223 110.375 219.146 111.291C220.068 112.207 221.422 112.665 223.208 112.665C224.876 112.665 226.211 112.227 227.211 111.351C228.212 110.454 228.713 109.209 228.713 107.616V87.506H237.22V118.402H230.744L229.743 112.277C229.39 114.09 228.723 115.484 227.741 116.46C226.78 117.416 225.671 118.074 224.415 118.432C223.179 118.811 221.962 119 220.765 119Z" fill="#383D9C"/>
<path d="M257.258 86.9084C259.81 86.9084 262.008 87.4363 263.852 88.492C265.717 89.5478 267.179 90.9721 268.238 92.7649C269.318 94.5578 269.936 96.5598 270.093 98.7709H262.94C262.743 97.5359 262.194 96.3606 261.291 95.245C260.408 94.1096 259.084 93.5418 257.317 93.5418C255.316 93.5418 253.687 94.3287 252.431 95.9024C251.195 97.4562 250.576 99.8267 250.576 103.014C250.576 106.042 251.185 108.432 252.401 110.185C253.618 111.938 255.316 112.815 257.494 112.815C258.652 112.815 259.613 112.526 260.379 111.948C261.164 111.371 261.772 110.683 262.204 109.886C262.636 109.07 262.91 108.313 263.028 107.616H270.005C269.867 109.747 269.259 111.679 268.179 113.412C267.1 115.126 265.628 116.49 263.764 117.506C261.919 118.502 259.751 119 257.258 119C254.433 119 251.911 118.363 249.693 117.088C247.476 115.813 245.729 113.99 244.454 111.62C243.198 109.229 242.57 106.38 242.57 103.074C242.57 99.8865 243.178 97.0777 244.395 94.6474C245.611 92.2171 247.319 90.3247 249.517 88.9701C251.715 87.5956 254.295 86.9084 257.258 86.9084Z" fill="#383D9C"/>
<path d="M284.67 119C281.746 119 279.303 118.183 277.341 116.55C275.378 114.916 274.397 112.586 274.397 109.558C274.397 106.171 275.633 103.602 278.106 101.849C280.598 100.076 284.543 99.1594 289.94 99.0996L293.737 99.0398V97.1873C293.737 95.7729 293.325 94.6873 292.501 93.9303C291.696 93.1534 290.44 92.7749 288.733 92.7948C287.477 92.8147 286.28 93.1135 285.141 93.6912C284.023 94.2689 283.257 95.2749 282.845 96.7092H275.692C275.849 93.3626 277.174 90.8924 279.666 89.2988C282.158 87.7052 285.308 86.9084 289.115 86.9084C293.786 86.9084 297.093 87.7849 299.035 89.5379C300.998 91.2709 301.979 93.6514 301.979 96.6793V118.402H294.797L294.09 113.084C293.05 115.315 291.745 116.859 290.175 117.715C288.625 118.572 286.79 119 284.67 119ZM287.555 113.263C288.595 113.263 289.586 113.024 290.528 112.546C291.47 112.048 292.236 111.41 292.824 110.633C293.433 109.837 293.737 108.99 293.737 108.094V103.522L290.646 103.582C289.213 103.602 287.879 103.771 286.643 104.09C285.406 104.408 284.405 104.946 283.64 105.703C282.894 106.44 282.522 107.436 282.522 108.691C282.522 110.126 283.002 111.251 283.964 112.068C284.945 112.865 286.142 113.263 287.555 113.263Z" fill="#383D9C"/>
<path d="M326.753 93.5717H319.983L320.042 110.036C320.042 111.171 320.258 111.888 320.689 112.187C321.121 112.466 321.808 112.606 322.75 112.606H326.842V117.984C326.429 118.163 325.811 118.333 324.987 118.492C324.163 118.651 323.005 118.731 321.514 118.731C318.845 118.731 316.774 118.382 315.302 117.685C313.85 116.988 312.84 116.012 312.27 114.757C311.701 113.502 311.417 112.048 311.417 110.394V93.5717H306.471V87.506H311.711L313.86 78.1833H319.983V87.4761H326.753V93.5717Z" fill="#383D9C"/>
<path d="M341.846 75.2251V83.0837H333.486V75.2251H341.846ZM341.757 87.506V118.402H333.544V87.506H341.757Z" fill="#383D9C"/>
<path d="M362.616 119C359.633 119 357.033 118.353 354.815 117.058C352.617 115.763 350.91 113.93 349.693 111.56C348.496 109.189 347.898 106.38 347.898 103.133C347.898 99.8865 348.496 97.0478 349.693 94.6175C350.91 92.1873 352.617 90.2948 354.815 88.9402C357.033 87.5857 359.643 86.9084 362.645 86.9084C365.648 86.9084 368.248 87.5757 370.446 88.9104C372.644 90.245 374.341 92.1275 375.539 94.5578C376.736 96.9681 377.334 99.8267 377.334 103.133C377.334 106.241 376.745 108.99 375.568 111.38C374.41 113.751 372.732 115.614 370.534 116.968C368.356 118.323 365.717 119 362.616 119ZM362.645 112.516C364.156 112.516 365.373 112.068 366.295 111.171C367.218 110.275 367.885 109.1 368.297 107.645C368.729 106.171 368.945 104.568 368.945 102.835C368.945 101.201 368.748 99.6673 368.356 98.2331C367.963 96.7789 367.306 95.6036 366.384 94.7072C365.481 93.7908 364.235 93.3327 362.645 93.3327C361.134 93.3327 359.908 93.761 358.966 94.6175C358.043 95.4741 357.366 96.6195 356.935 98.0538C356.503 99.488 356.287 101.082 356.287 102.835C356.287 104.448 356.483 106.002 356.876 107.496C357.268 108.97 357.926 110.175 358.848 111.112C359.77 112.048 361.036 112.516 362.645 112.516Z" fill="#383D9C"/>
<path d="M383.065 118.402V87.506H391.513V91.8685C392.219 90.753 393.269 89.7072 394.663 88.7311C396.056 87.7351 397.95 87.2371 400.344 87.2371C402.208 87.2371 403.945 87.6056 405.554 88.3426C407.183 89.0797 408.498 90.245 409.499 91.8386C410.5 93.4123 411 95.4741 411 98.0239V118.402H402.405V99.0996C402.405 97.4263 401.904 96.1713 400.903 95.3347C399.922 94.498 398.735 94.0797 397.341 94.0797C395.928 94.0797 394.623 94.4582 393.426 95.2151C392.249 95.9721 391.66 97.1076 391.66 98.6215V118.402H383.065Z" fill="#383D9C"/>
<path fill-rule="evenodd" clip-rule="evenodd" d="M0 37V120.077L54 133V49.9231L0 37ZM7.36364 46.3542V114.247L46.6364 123.646V55.7528L7.36364 46.3542Z" fill="#383D9C"/>
<path fill-rule="evenodd" clip-rule="evenodd" d="M111 37V120.077L54 133V49.9231L111 37ZM103.565 46.2602V114.188L61.4348 123.74V55.812L103.565 46.2602Z" fill="#383D9C"/>
<path d="M29.6783 25.9456C28.1186 27.4574 25.6173 27.4166 24.1074 25.8548C22.596 24.2931 22.6369 21.7925 24.1981 20.2807C32.355 12.3874 43.1371 8 54.4905 8C65.8152 8 76.6442 12.3934 84.786 20.2656C86.3563 21.7774 86.4031 24.284 84.8917 25.8548C83.3819 27.4256 80.8745 27.4725 79.3042 25.9607C72.6149 19.4915 63.793 15.9311 54.4905 15.9311C45.2062 15.9311 36.3571 19.4855 29.6783 25.9456V25.9456Z" fill="#383D9C"/>
<path d="M22.9943 34.7817C21.9906 36.7081 19.6039 37.4577 17.6788 36.4515C15.7522 35.4458 15.0027 33.0598 16.0079 31.1329C21.261 21.0709 30.1106 13.5087 40.8853 9.93016C51.6328 6.36066 63.2945 7.11686 73.5026 12.0215C75.4694 12.9613 76.3039 15.3254 75.3647 17.2925C74.4269 19.2592 72.0621 20.0939 70.0953 19.1541C61.7079 15.1232 52.2135 14.5249 43.3852 17.457C34.5741 20.3834 27.2964 26.5458 22.9943 34.7817V34.7817Z" fill="#383D9C"/>
<path d="M85.7989 34.7817C86.8026 36.7081 89.1893 37.4577 91.1145 36.4515C93.041 35.4458 93.7905 33.0598 92.7854 31.1329C87.5322 21.0709 78.6826 13.5087 67.9079 9.93016C57.1604 6.36066 45.4987 7.11686 35.2906 12.0215C33.3239 12.9613 32.4893 15.3254 33.4285 17.2925C34.3663 19.2592 36.7311 20.0939 38.6979 19.1541C47.0853 15.1232 56.5797 14.5249 65.408 17.457C74.2191 20.3834 81.4968 26.5458 85.7989 34.7817V34.7817Z" fill="#383D9C"/>
<path d="M38.6613 35.0027C37.0729 36.4979 34.5701 36.4223 33.0738 34.8333C31.5791 33.2444 31.91 30.9952 33.5 29.5C39.1586 24.195 46.2787 21 54.0365 21C61.7944 21 69.1729 23.939 74.83 29.2471C76.4184 30.7423 76.494 33.2474 74.9977 34.8364C73.503 36.4253 71.0898 35.9952 69.4999 34.5C64.4999 31.5 59.7586 28.9311 54.0365 28.9311C48.3205 28.9311 42.8327 31.0855 38.6613 35.0027Z" fill="#383D9C"/>
<path d="M34.9663 39.7775C33.753 41.6064 31.2562 42.1557 29.3921 41.0031C27.5295 39.8502 27 37.4287 28.2148 35.5995C32.5422 29.1048 39.1407 24.453 46.8236 22.5259C54.5064 20.5988 62.5208 21.5852 69.4004 25.2718C71.3332 26.3115 72.0108 28.6958 70.9114 30.5917C69.8134 32.4873 67.353 33.1815 65.4186 32.1422C60.3428 29.4182 54.3987 28.7126 48.7319 30.134C43.0712 31.5539 38.1548 34.9837 34.9663 39.7775V39.7775Z" fill="#383D9C"/>
<path d="M74.3083 39.7256C75.5216 41.5545 78.0185 42.1037 79.8826 40.9511C81.7452 39.7982 82.2746 37.3767 81.0598 35.5475C76.7324 29.0529 70.1339 24.401 62.4511 22.4739C54.7682 20.5468 46.7539 21.5332 39.8743 25.2198C37.9414 26.2595 37.2638 28.6438 38.3633 30.5398C39.4613 32.4353 41.9217 33.1295 43.8561 32.0902C48.9319 29.3662 54.876 28.6606 60.5427 30.082C66.2035 31.5019 71.1198 34.9317 74.3083 39.7256Z" fill="#383D9C"/>
<path d="M48 44.1542C46.3435 45.5723 44.3065 45.8127 42.8903 44.1542C41.4727 42.4957 41.6661 39.9981 43.3241 38.58C46.433 35.9131 50.3913 34.4361 54.4901 34.4361C58.6041 34.4361 62.5351 35.904 65.6592 38.58C67.3171 39.9981 67.5106 42.4957 66.0929 44.1542C64.6753 45.8127 62.658 45.4181 61 44C59.3058 42.5517 56.7194 41.5 54.4901 41.5C52.2699 41.5 49.6867 42.7058 48 44.1542Z" fill="#383D9C"/>
</svg>
