<svg width="27" height="23" viewBox="0 0 27 23" fill="none" xmlns="http://www.w3.org/2000/svg">
<path d="M0 14.1641V8.83594C0 7.87814 0.387612 6.95956 1.07757 6.28229C1.76752 5.60502 2.7033 5.22454 3.67904 5.22454H7.91959L12.9761 0.436126C13.1941 0.225534 13.4709 0.0831181 13.7713 0.0268772C14.0718 -0.0293636 14.3825 0.0030951 14.6642 0.120151C14.9459 0.237207 15.1859 0.433605 15.3539 0.684525C15.5219 0.935445 15.6104 1.22962 15.6081 1.52988V21.4701C15.6104 21.7704 15.5219 22.0646 15.3539 22.3155C15.1859 22.5664 14.9459 22.7628 14.6642 22.8799C14.3825 22.9969 14.0718 23.0294 13.7713 22.9731C13.4709 22.9169 13.1941 22.7745 12.9761 22.5639L7.91959 17.7755H3.67904C3.1959 17.7755 2.71749 17.6821 2.27113 17.5006C1.82477 17.3191 1.4192 17.0531 1.07757 16.7177C0.387612 16.0404 0 15.1219 0 14.1641ZM19.4334 15.5391C20.5184 14.464 21.127 13.0119 21.127 11.4986C21.127 9.98524 20.5184 8.53312 19.4334 7.45798C19.3341 7.35386 19.2051 7.28144 19.0633 7.25011C18.9216 7.21878 18.7735 7.22999 18.6382 7.28228C18.503 7.33457 18.3869 7.42553 18.305 7.54337C18.2231 7.6612 18.1791 7.80048 18.1788 7.94314V15.0569C18.1797 15.1993 18.2241 15.3382 18.3062 15.4556C18.3884 15.5729 18.5045 15.6635 18.6396 15.7154C18.7747 15.7673 18.9225 15.7783 19.0641 15.7469C19.2056 15.7155 19.3342 15.6431 19.4334 15.5391ZM20.2435 21.9323C22.2632 21.003 23.9713 19.528 25.1679 17.6802C26.3645 15.8324 27 13.6881 27 11.4986C27 9.30901 26.3645 7.16477 25.1679 5.31693C23.9713 3.4691 22.2632 1.99416 20.2435 1.06482C19.8906 0.905694 19.4877 0.890701 19.1236 1.02314C18.7594 1.15558 18.4637 1.4246 18.3016 1.77103C18.1395 2.11745 18.1242 2.5129 18.2592 2.87037C18.3941 3.22785 18.6681 3.51808 19.0211 3.6772C20.5293 4.37888 21.8037 5.48636 22.6961 6.87091C23.5885 8.25545 24.0622 9.86018 24.0622 11.4986C24.0622 13.1369 23.5885 14.7417 22.6961 16.1262C21.8037 17.5108 20.5293 18.6182 19.0211 19.3199C18.6681 19.4791 18.3941 19.7693 18.2592 20.1268C18.1242 20.4842 18.1395 20.8797 18.3016 21.2261C18.4637 21.5725 18.7594 21.8416 19.1236 21.974C19.4877 22.1064 19.8906 22.0914 20.2435 21.9323Z" fill="#40437D"/>
</svg>
