<?xml version="1.0" standalone="no"?>
<!DOCTYPE svg PUBLIC "-//W3C//DTD SVG 20010904//EN"
 "http://www.w3.org/TR/2001/REC-SVG-20010904/DTD/svg10.dtd">
<svg version="1.0" xmlns="http://www.w3.org/2000/svg"
 width="32.000000pt" height="32.000000pt" viewBox="0 0 32.000000 32.000000"
 preserveAspectRatio="xMidYMid meet">

<g transform="translate(0.000000,32.000000) scale(0.100000,-0.100000)"
fill="#000000" stroke="none">
<path d="M117 308 c-3 -9 9 -13 43 -13 34 0 46 4 43 13 -3 6 -22 12 -43 12
-21 0 -40 -6 -43 -12z"/>
<path d="M40 250 c0 -19 7 -20 120 -20 113 0 120 1 120 20 0 19 -7 20 -120 20
-113 0 -120 -1 -120 -20z"/>
<path d="M67 214 c-7 -7 -1 -113 9 -182 l5 -32 79 0 79 0 5 33 c3 17 7 66 8
107 l3 75 -90 3 c-50 1 -94 0 -98 -4z m47 -55 c9 -48 7 -144 -3 -133 -11 11
-21 164 -11 164 4 0 10 -14 14 -31z m56 -54 c0 -50 -4 -85 -10 -85 -6 0 -10
35 -10 85 0 50 4 85 10 85 6 0 10 -35 10 -85z m52 8 c-2 -43 -8 -82 -13 -87
-10 -11 -12 85 -3 133 12 58 21 31 16 -46z"/>
</g>
</svg>
